<svg width="230" height="230" viewBox="0 0 230 230" fill="none" xmlns="http://www.w3.org/2000/svg">
<rect width="230" height="230" rx="52" fill="#4E7DEF"/>
<path d="M178.942 46.3343L164.445 52.933C163.517 53.3614 162.66 53.947 161.931 54.6755L138.308 78.3136L56.9525 68.5584C55.4813 68.387 53.9959 68.8869 52.9533 69.9438L48.4256 74.4715C46.0261 76.871 46.7688 80.9273 49.8682 82.3128L108.171 108.45L91.4313 125.19H62.1943C60.9088 125.19 59.6805 125.704 58.7664 126.604L56.324 129.06C53.8959 131.489 54.6958 135.588 57.838 136.93L82.5045 147.5L93.0738 172.166C94.4164 175.308 98.5299 176.108 100.944 173.68L103.4 171.224C104.314 170.309 104.814 169.081 104.814 167.796V138.559L121.554 121.819L147.691 180.136C149.077 183.235 153.133 183.978 155.533 181.579L160.06 177.051C161.117 175.994 161.617 174.523 161.446 173.052L151.676 91.6968L175.314 68.0586C176.043 67.3302 176.628 66.4875 177.057 65.5449L183.656 51.0478C185.041 48.0625 181.956 44.9631 178.942 46.3343Z" fill="white"/>
</svg>
