<svg width="248" height="221" viewBox="0 0 248 221" fill="none" xmlns="http://www.w3.org/2000/svg">
<path d="M164.035 12.1463C159.704 4.65112 151.651 1.17496e-06 142.996 1.17496e-06L104.59 0.00103137C95.9355 0.00103137 87.8812 4.65112 83.5519 12.1474L3.24519 151.245C-1.08525 158.737 -1.08102 168.038 3.25364 175.528L22.5323 208.857C26.8659 216.351 34.9233 221 43.5789 221H77.0536C85.706 221 93.7614 216.346 98.0907 208.853L108.348 191.086C110.643 187.114 111.854 182.587 111.854 178.003V141.562C111.854 138.662 108.551 136.999 106.22 138.725L50.2829 177.716C48.7786 178.833 46.6424 178.394 45.6961 176.779L39.1768 165.633C38.1387 163.859 38.4383 161.593 39.9046 160.149L106.858 96.6969C110.047 93.5564 111.854 89.2408 111.854 84.7648V56.6185C111.854 50.9641 115.898 37.7407 121.254 34.7216C122.705 33.9008 124.605 33.9177 125.844 34.4251C131.497 36.7365 135.853 50.751 135.853 56.6185V84.7648C135.853 89.2408 137.66 93.5564 140.848 96.6969L202.855 160.149C204.32 161.593 204.621 163.859 203.581 165.633L197.065 176.779C196.116 178.394 193.982 178.833 192.475 177.716L141.487 138.725C139.157 136.999 135.853 138.662 135.853 141.562V177.996C135.853 182.583 137.064 187.104 139.358 191.081L149.616 208.853C153.945 216.346 162 220.995 170.652 220.995H203.879C212.539 220.995 220.608 216.366 224.984 208.891L244.395 175.701C248.76 168.236 248.788 158.94 244.463 151.451L164.035 12.1463Z" fill="#4E7DEF"/>
</svg>
